<svg width="16" height="19" viewBox="0 0 16 19" fill="none" xmlns="http://www.w3.org/2000/svg">
<path d="M2.15385 19H0.923077C0.678262 19 0.443474 18.8999 0.270363 18.7218C0.0972525 18.5436 0 18.302 0 18.05V12.35C0 12.098 0.0972525 11.8564 0.270363 11.6782C0.443474 11.5001 0.678262 11.4 0.923077 11.4H2.15385C2.39866 11.4 2.63345 11.5001 2.80656 11.6782C2.97967 11.8564 3.07692 12.098 3.07692 12.35V18.05C3.07692 18.302 2.97967 18.5436 2.80656 18.7218C2.63345 18.8999 2.39866 19 2.15385 19ZM10.7692 19H9.53846C9.29365 19 9.05886 18.8999 8.88575 18.7218C8.71264 18.5436 8.61539 18.302 8.61539 18.05V8.55C8.61539 8.29804 8.71264 8.05641 8.88575 7.87825C9.05886 7.70009 9.29365 7.6 9.53846 7.6H10.7692C11.014 7.6 11.2488 7.70009 11.4219 7.87825C11.5951 8.05641 11.6923 8.29804 11.6923 8.55V18.05C11.6923 18.302 11.5951 18.5436 11.4219 18.7218C11.2488 18.8999 11.014 19 10.7692 19ZM15.0769 19H13.8462C13.6013 19 13.3666 18.8999 13.1934 18.7218C13.0203 18.5436 12.9231 18.302 12.9231 18.05V4.11667C12.9231 3.86471 13.0203 3.62307 13.1934 3.44492C13.3666 3.26676 13.6013 3.16667 13.8462 3.16667H15.0769C15.3217 3.16667 15.5565 3.26676 15.7296 3.44492C15.9027 3.62307 16 3.86471 16 4.11667V18.05C16 18.302 15.9027 18.5436 15.7296 18.7218C15.5565 18.8999 15.3217 19 15.0769 19ZM6.46154 19H5.23077C4.98595 19 4.75117 18.8999 4.57806 18.7218C4.40494 18.5436 4.30769 18.302 4.30769 18.05V0.95C4.30769 0.698044 4.40494 0.456408 4.57806 0.278249C4.75117 0.100089 4.98595 0 5.23077 0H6.46154C6.70635 0 6.94114 0.100089 7.11425 0.278249C7.28736 0.456408 7.38462 0.698044 7.38462 0.95V18.05C7.38462 18.302 7.28736 18.5436 7.11425 18.7218C6.94114 18.8999 6.70635 19 6.46154 19Z" fill="#153C3C"/>
</svg>
