<svg width="15" height="15" viewBox="0 0 15 15" fill="none" xmlns="http://www.w3.org/2000/svg">
<path d="M6.73544 10.9839C6.67953 10.9841 6.62395 10.9754 6.57079 10.9581C6.47519 10.9272 6.39022 10.87 6.3256 10.793C6.26098 10.7161 6.2193 10.6225 6.20534 10.523C6.13339 10.021 5.53771 9.43666 4.97984 9.3232C4.88772 9.30415 4.80224 9.26116 4.73201 9.19857C4.66178 9.13597 4.60929 9.05598 4.5798 8.96664C4.55032 8.87731 4.54489 8.78178 4.56407 8.68968C4.58324 8.59757 4.62634 8.51215 4.68902 8.442L11.7532 0.573738C11.7596 0.566375 11.7663 0.559347 11.773 0.552653C12.1279 0.198742 12.6086 0 13.1098 0C13.6109 0 14.0917 0.198742 14.4465 0.552653C14.8003 0.906658 14.9993 1.38645 15 1.88692C15.0007 2.38739 14.803 2.86773 14.4502 3.22271L7.12129 10.8199C7.07131 10.8718 7.01138 10.913 6.94508 10.9412C6.87878 10.9694 6.80747 10.9839 6.73544 10.9839ZM2.94514 15C1.86956 15 0.754821 14.4347 0.105591 13.5609C0.0464187 13.4812 0.010552 13.3867 0.00199458 13.2878C-0.00656283 13.1889 0.0125259 13.0896 0.0571298 13.0009C0.101734 12.9123 0.170098 12.8378 0.254591 12.7857C0.339084 12.7336 0.436381 12.7061 0.535622 12.7061C0.714328 12.7061 1.20493 12.5431 1.20493 12.0177C1.20493 10.7101 2.25575 9.64617 3.54751 9.64617C4.83928 9.64617 5.8901 10.7101 5.8901 12.0177C5.8901 13.6616 4.56888 15 2.94514 15Z" fill="#153C3C"/>
</svg>
