<svg width="193" height="35" viewBox="0 0 193 35" fill="none" xmlns="http://www.w3.org/2000/svg">
<g clip-path="url(#clip0_323_446)">
<path d="M29.2807 4.82759V16.7155C29.2807 17.0172 29.2205 17.8017 29.2205 18.1035V18.2241C28.7997 24.9828 24.1701 29.1466 17.0754 29.1466C15.5354 29.1845 14.0041 28.904 12.5767 28.3227C11.1493 27.7413 9.85636 26.8715 8.77818 25.7672C7.76225 24.6686 6.97767 23.3754 6.47145 21.9653C5.96522 20.5551 5.74776 19.0569 5.83208 17.5603C6.07258 11.8879 10.9427 7.72414 17.0754 7.72414C18.3013 7.67437 19.5254 7.85867 20.6828 8.26724V14.0603L20.3822 13.9397C19.5291 13.5729 18.6034 13.4078 17.6766 13.4569C15.7526 13.3966 14.009 14.0603 13.047 15.2069C12.303 16.1048 11.8985 17.2374 11.9047 18.4052C11.8946 19.592 12.2987 20.7448 13.047 21.6638C13.64 22.2834 14.3634 22.7621 15.1644 23.0649C15.9654 23.3677 16.8238 23.4869 17.6766 23.4138C21.7651 23.2328 22.8473 19.9138 23.148 17.9224C23.2682 16.9569 23.3283 15.0259 23.3283 14.7845V1.12845C21.4994 0.451849 19.5658 0.104569 17.6165 0.102588C13.6034 0.0628441 9.70244 1.43072 6.58711 3.97005C3.47178 6.50937 1.33764 10.0608 0.553147 14.011C-0.231344 17.9613 0.383061 22.0626 2.29028 25.6066C4.1975 29.1507 7.27782 31.9152 10.9994 33.4228C14.721 34.9303 18.8503 35.0864 22.6743 33.8639C26.4983 32.6415 29.777 30.1173 31.9443 26.7272C34.1117 23.3371 35.0316 19.2938 34.5453 15.2955C34.059 11.2972 32.1969 7.59483 29.2807 4.82759Z" fill="#153C3C"/>
<path d="M61.4472 5.79633C61.4472 5.39622 61.2888 5.0125 61.007 4.72958C60.7251 4.44665 60.3427 4.28771 59.9441 4.28771C59.5454 4.28771 59.1631 4.44665 58.8812 4.72958C58.5993 5.0125 58.441 5.39622 58.441 5.79633V14.7877C57.7181 13.9439 56.8404 13.2473 55.8556 12.736C54.6006 12.1257 53.2217 11.8159 51.8273 11.8308C50.2057 11.822 48.61 12.238 47.1977 13.0377C45.8295 13.847 44.7071 15.0153 43.951 16.417C43.1534 17.8779 42.7396 19.5185 42.7485 21.1843C42.7326 22.8509 43.1469 24.4932 43.951 25.9515C44.7355 27.3724 45.9022 28.5434 47.3179 29.3308C48.7626 30.1587 50.4047 30.5759 52.0678 30.5377C53.7283 30.5536 55.3647 30.1378 56.8176 29.3308C58.2213 28.5275 59.3842 27.3603 60.1846 25.9515C61.0025 24.4987 61.4177 22.8526 61.3871 21.1843V13.4782C61.4028 13.3737 61.3815 13.2669 61.327 13.1765V5.79633H61.4472ZM58.5011 21.1843C58.5157 22.3647 58.2257 23.5289 57.6594 24.5636C57.1272 25.5592 56.3381 26.393 55.3746 26.9774C54.3953 27.5652 53.2684 27.8584 52.1279 27.8222C50.9727 27.8218 49.8359 27.5314 48.821 26.9774C47.8576 26.393 47.0685 25.5592 46.5363 24.5636C45.9841 23.5234 45.6951 22.3629 45.6946 21.1843C45.68 20.0038 45.97 18.8397 46.5363 17.805C47.0534 16.8139 47.8474 15.996 48.821 15.4515C49.8332 14.8906 50.9718 14.5997 52.1279 14.6067C53.6953 14.5812 55.2164 15.1403 56.3967 16.1756C57.552 17.2315 58.2975 18.6639 58.5011 20.2187C58.4921 20.3038 58.5134 20.3893 58.5612 20.4601C58.499 20.6961 58.4787 20.9412 58.5011 21.1843Z" fill="#153C3C"/>
<path d="M76.5385 12.9774C75.211 12.1911 73.6905 11.7939 72.1494 11.8308C70.546 11.8143 68.9676 12.2311 67.58 13.0377C66.2335 13.8362 65.1473 15.0103 64.4535 16.417C63.6957 17.9337 63.3044 19.6082 63.3111 21.3049C63.2873 22.9917 63.7018 24.6555 64.5136 26.1325C65.2925 27.5373 66.4351 28.7049 67.8205 29.5118C69.5388 30.4385 71.489 30.8424 73.4324 30.6741C75.3759 30.5058 77.2283 29.7727 78.7631 28.5644C78.8958 28.4543 79.0024 28.316 79.0752 28.1594C79.148 28.0029 79.1851 27.832 79.184 27.6593C79.1765 27.3831 79.09 27.1149 78.935 26.8866C78.78 26.6583 78.563 26.4795 78.3096 26.3715C78.0563 26.2634 77.7774 26.2306 77.5061 26.2771C77.2347 26.3235 76.9824 26.4472 76.779 26.6334C76.2335 27.0851 75.598 27.4143 74.9152 27.5989C74.1781 27.8504 73.4084 27.9927 72.6304 28.0213C70.995 28.0652 69.4042 27.4827 68.1812 26.392C67.0382 25.3668 66.3284 23.9422 66.1971 22.4093H79.184C79.5575 22.4192 79.9216 22.2902 80.2061 22.0472C80.476 21.7745 80.6273 21.4057 80.627 21.0213C80.654 19.3873 80.2824 17.7714 79.5448 16.3144C78.8785 14.9383 77.8358 13.7809 76.5385 12.9774ZM68.1211 15.9946C69.2011 14.9979 70.6224 14.4575 72.0893 14.486C72.8003 14.4525 73.5103 14.5696 74.1732 14.8295C74.8361 15.0894 75.4372 15.4864 75.9373 15.9946C76.9263 16.9815 77.5426 18.2828 77.6809 19.6756H66.1971C66.4292 18.2735 67.1037 16.9832 68.1211 15.9946Z" fill="#153C3C"/>
<path d="M88.2029 27.4601H87.3611C87.0992 27.4585 86.8427 27.3844 86.62 27.246C86.3972 27.1076 86.2168 26.9102 86.0985 26.6756C85.7083 26.021 85.52 25.2651 85.5574 24.5032V5.73597C85.5659 5.53558 85.5328 5.3356 85.4603 5.1487C85.3878 4.9618 85.2774 4.79206 85.136 4.65023C84.9947 4.5084 84.8256 4.39758 84.6394 4.32479C84.4532 4.25199 84.2539 4.21881 84.0543 4.22735C83.8629 4.21351 83.671 4.24447 83.4937 4.31777C83.3163 4.39108 83.1583 4.50473 83.0322 4.64977C82.8912 4.79191 82.781 4.96178 82.7086 5.14871C82.6361 5.33563 82.603 5.53558 82.6113 5.73597V24.5032C82.5408 26.0239 83.0094 27.5205 83.934 28.7274C84.3294 29.2631 84.8468 29.6961 85.443 29.9901C86.0393 30.284 86.697 30.4304 87.3611 30.417H87.782C88.0004 30.4309 88.2194 30.4007 88.4259 30.3282C88.6325 30.2556 88.8224 30.1422 88.9845 29.9946C89.1338 29.8557 89.2534 29.6878 89.3361 29.501C89.4187 29.3143 89.4628 29.1127 89.4655 28.9084C89.4756 28.722 89.4489 28.5354 89.387 28.3594C89.3251 28.1833 89.2292 28.0213 89.1047 27.8825C88.9932 27.7516 88.8549 27.6461 88.6994 27.5733C88.5438 27.5004 88.3745 27.4618 88.2029 27.4601Z" fill="#153C3C"/>
<path d="M92.8926 11.9515C92.6913 11.9428 92.4905 11.9764 92.303 12.0503C92.1155 12.1242 91.9454 12.2367 91.8038 12.3805C91.6623 12.5243 91.5522 12.6963 91.4809 12.8853C91.4095 13.0744 91.3784 13.2764 91.3895 13.4782V28.9265C91.3895 29.3266 91.5478 29.7103 91.8297 29.9933C92.1116 30.2762 92.4939 30.4351 92.8926 30.4351C93.2912 30.4351 93.6735 30.2762 93.9554 29.9933C94.2373 29.7103 94.3957 29.3266 94.3957 28.9265V13.4782C94.404 13.2778 94.3708 13.0779 94.2984 12.891C94.226 12.704 94.1158 12.5342 93.9748 12.392C93.676 12.1234 93.2934 11.9676 92.8926 11.9515Z" fill="#153C3C"/>
<path d="M92.8924 5.85665C92.3611 5.85273 91.8472 6.04618 91.4494 6.39975C91.2474 6.58043 91.0885 6.80442 90.9844 7.05512C90.8803 7.30582 90.8338 7.57682 90.8482 7.84803C90.8437 8.11797 90.8948 8.38593 90.9982 8.63514C91.1017 8.88435 91.2553 9.10944 91.4494 9.2963C91.6295 9.49909 91.8526 9.65862 92.1024 9.76308C92.3522 9.86754 92.6222 9.91425 92.8924 9.89975C93.4341 9.89816 93.9531 9.68149 94.3362 9.29706C94.7192 8.91263 94.9351 8.39169 94.9367 7.84803C94.9511 7.57682 94.9046 7.30582 94.8005 7.05512C94.6964 6.80442 94.5375 6.58043 94.3354 6.39975C93.9377 6.04618 93.4237 5.85273 92.8924 5.85665Z" fill="#153C3C"/>
<path d="M113.816 13.3394C113.817 13.0759 113.744 12.8174 113.606 12.5933C113.468 12.3693 113.27 12.1887 113.034 12.0722C112.807 11.963 112.557 11.9114 112.305 11.9219C112.054 11.9325 111.808 12.0048 111.591 12.1325C111.352 12.2717 111.163 12.4828 111.05 12.736L105.038 26.0118L98.9649 12.7963C98.8547 12.5596 98.6898 12.3527 98.4839 12.1929C98.2834 12.0799 98.0594 12.0156 97.8297 12.0051C97.6 11.9947 97.3711 12.0383 97.1612 12.1325C96.9102 12.2344 96.6957 12.4098 96.5456 12.6358C96.3954 12.8619 96.3166 13.1281 96.3194 13.3998C96.324 13.5869 96.3649 13.7714 96.4397 13.9429L103.715 29.4515C103.817 29.7365 104.005 29.9826 104.253 30.1555C104.501 30.3285 104.796 30.4199 105.098 30.417C105.409 30.43 105.716 30.3435 105.976 30.17C106.235 29.9965 106.433 29.7449 106.541 29.4515L113.756 13.8825C113.805 13.706 113.825 13.5225 113.816 13.3394Z" fill="#153C3C"/>
<path d="M127.164 12.9774C125.836 12.1911 124.315 11.7939 122.774 11.8308C121.171 11.8143 119.593 12.2311 118.205 13.0377C116.859 13.8362 115.772 15.0103 115.078 16.417C114.321 17.9337 113.929 19.6082 113.936 21.3049C113.912 22.9917 114.327 24.6555 115.139 26.1325C115.918 27.5373 117.06 28.7049 118.445 29.5118C120.164 30.4385 122.114 30.8424 124.057 30.6741C126.001 30.5058 127.853 29.7727 129.388 28.5644C129.521 28.4543 129.627 28.316 129.7 28.1594C129.773 28.0029 129.81 27.832 129.809 27.6593C129.801 27.3831 129.715 27.1149 129.56 26.8866C129.405 26.6583 129.188 26.4795 128.935 26.3715C128.681 26.2634 128.402 26.2306 128.131 26.2771C127.86 26.3235 127.607 26.4472 127.404 26.6334C126.859 27.0851 126.223 27.4143 125.54 27.5989C124.803 27.8504 124.033 27.9927 123.255 28.0213C121.62 28.0652 120.029 27.4827 118.806 26.392C117.663 25.3668 116.953 23.9422 116.822 22.4093H129.809C130.183 22.4192 130.547 22.2902 130.831 22.0472C131.101 21.7745 131.252 21.4057 131.252 21.0213C131.279 19.3873 130.907 17.7714 130.17 16.3144C129.503 14.9383 128.461 13.7809 127.164 12.9774ZM118.746 15.9946C119.826 14.9979 121.247 14.4575 122.714 14.486C123.425 14.4525 124.135 14.5696 124.798 14.8295C125.461 15.0894 126.062 15.4864 126.562 15.9946C127.551 16.9815 128.168 18.2828 128.306 19.6756H116.822C117.078 18.2815 117.748 16.998 118.746 15.9946Z" fill="#153C3C"/>
<path d="M144.9 13.7618C144.9 13.6411 144.96 13.5808 144.96 13.3998C144.957 13.1197 144.861 12.8488 144.686 12.6301C144.512 12.4114 144.27 12.2575 143.998 12.1929C143.268 11.9208 142.492 11.7977 141.714 11.8308C140.685 11.8149 139.666 12.0287 138.731 12.4566C137.795 12.8845 136.965 13.5158 136.302 14.3049V13.5204C136.322 13.3189 136.294 13.1157 136.221 12.927C136.148 12.7383 136.032 12.5695 135.882 12.4342C135.738 12.2948 135.569 12.1855 135.383 12.1129C135.197 12.0404 134.999 12.006 134.799 12.0118C134.599 11.9922 134.396 12.0201 134.208 12.0935C134.02 12.1669 133.852 12.2836 133.717 12.4342C133.578 12.5778 133.469 12.748 133.397 12.9345C133.325 13.1211 133.29 13.3203 133.296 13.5204V29.0291C133.277 29.2306 133.304 29.4338 133.378 29.6225C133.451 29.8112 133.567 29.98 133.717 30.1153C133.86 30.2547 134.03 30.364 134.216 30.4366C134.401 30.5091 134.6 30.5435 134.799 30.5377C135 30.5573 135.203 30.5294 135.391 30.456C135.579 30.3826 135.747 30.2659 135.882 30.1153C136.021 29.9717 136.129 29.8015 136.202 29.615C136.274 29.4284 136.308 29.2292 136.302 29.0291V19.1929C136.283 18.5697 136.408 17.9506 136.669 17.3848C136.93 16.819 137.319 16.3223 137.806 15.9342C138.895 15.0626 140.261 14.6129 141.654 14.667C141.916 14.649 142.179 14.6693 142.435 14.7273C142.774 14.7698 143.116 14.7899 143.457 14.7877C143.768 14.7982 144.076 14.7362 144.359 14.6066C144.607 14.3745 144.793 14.0842 144.9 13.7618Z" fill="#153C3C"/>
<path d="M157.887 12.9774C156.56 12.1911 155.039 11.7939 153.498 11.8308C151.895 11.8143 150.316 12.2311 148.929 13.0377C147.582 13.8362 146.496 15.0103 145.802 16.417C145.044 17.9337 144.653 19.6082 144.66 21.3049C144.636 22.9917 145.05 24.6555 145.862 26.1325C146.641 27.5373 147.784 28.7049 149.169 29.5118C150.888 30.4385 152.838 30.8424 154.781 30.6741C156.725 30.5058 158.577 29.7727 160.112 28.5644C160.244 28.4543 160.351 28.316 160.424 28.1594C160.497 28.0029 160.534 27.832 160.533 27.6593C160.525 27.3831 160.439 27.1149 160.284 26.8866C160.129 26.6583 159.912 26.4795 159.658 26.3715C159.405 26.2634 159.126 26.2306 158.855 26.2771C158.583 26.3235 158.331 26.4472 158.128 26.6334C157.582 27.0851 156.947 27.4143 156.264 27.5989C155.527 27.8504 154.757 27.9927 153.979 28.0213C152.344 28.0652 150.753 27.4827 149.53 26.392C148.387 25.3668 147.677 23.9422 147.546 22.4093H160.533C160.906 22.4192 161.27 22.2902 161.555 22.0472C161.825 21.7745 161.976 21.4057 161.976 21.0213C162.003 19.3873 161.631 17.7714 160.893 16.3144C160.227 14.9383 159.185 13.7809 157.887 12.9774ZM159.09 19.736H147.606C147.801 18.3348 148.457 17.0392 149.47 16.0549C150.55 15.0582 151.971 14.5179 153.438 14.5463C154.149 14.5129 154.859 14.6299 155.522 14.8898C156.185 15.1497 156.786 15.5467 157.286 16.0549C158.314 17.0208 158.955 18.3295 159.09 19.736Z" fill="#153C3C"/>
<path d="M169.792 15.3912C170.717 14.8314 171.778 14.539 172.858 14.5463C173.73 14.5332 174.593 14.7189 175.383 15.0895C176.172 15.482 176.885 16.0134 177.488 16.6584C177.7 16.9401 178.012 17.1287 178.359 17.1849C178.706 17.2411 179.062 17.1606 179.351 16.9601C179.542 16.8475 179.702 16.6895 179.817 16.5001C179.933 16.3106 180 16.0956 180.013 15.8739C180.005 15.5674 179.899 15.2715 179.712 15.0291C178.905 13.9834 177.864 13.1433 176.673 12.5772C175.482 12.011 174.175 11.7346 172.858 11.7705C171.255 11.7618 169.679 12.1781 168.288 12.9774C166.938 13.7902 165.836 14.959 165.102 16.3567C164.323 17.8441 163.93 19.5043 163.96 21.1843C163.944 22.8509 164.358 24.4932 165.162 25.9515C165.941 27.3563 167.083 28.5239 168.469 29.3308C169.889 30.1652 171.514 30.5833 173.159 30.5377C175.422 30.6036 177.622 29.781 179.291 28.2446C179.418 28.1296 179.521 27.9902 179.593 27.8347C179.665 27.6793 179.706 27.5109 179.712 27.3395C179.711 27.1288 179.662 26.9213 179.568 26.7329C179.474 26.5445 179.338 26.3804 179.171 26.2532C178.889 26.038 178.54 25.9317 178.187 25.9539C177.833 25.976 177.5 26.1251 177.247 26.3739C176.102 27.3285 174.646 27.823 173.159 27.7619C172.021 27.7768 170.899 27.4851 169.912 26.917C168.969 26.353 168.199 25.5386 167.687 24.5636C167.154 23.5187 166.886 22.3581 166.906 21.1843C166.888 19.9981 167.135 18.8231 167.627 17.7446C168.152 16.7988 168.894 15.9921 169.792 15.3912Z" fill="#153C3C"/>
<path d="M192.639 27.8825C192.513 27.7375 192.355 27.6238 192.178 27.5505C192 27.4772 191.808 27.4463 191.617 27.4601H190.715C190.272 27.4838 189.829 27.4035 189.422 27.2254C189.015 27.0473 188.655 26.7764 188.37 26.4343C187.756 25.7136 187.434 24.7873 187.468 23.8394V15.2886H190.956C191.329 15.2985 191.693 15.1696 191.978 14.9265C192.102 14.7997 192.198 14.6483 192.26 14.482C192.322 14.3157 192.349 14.1383 192.339 13.961C192.348 13.6043 192.219 13.2579 191.978 12.9955C191.84 12.8706 191.678 12.7743 191.503 12.7121C191.327 12.65 191.141 12.6232 190.956 12.6334H187.468V7.74546C187.468 7.34535 187.31 6.96162 187.028 6.6787C186.746 6.39578 186.364 6.23684 185.965 6.23684C185.567 6.23684 185.184 6.39578 184.903 6.6787C184.621 6.96162 184.462 7.34535 184.462 7.74546V12.6334H182.538C182.165 12.6235 181.801 12.7524 181.516 12.9955C181.275 13.2579 181.146 13.6043 181.155 13.961C181.156 14.3158 181.284 14.6585 181.516 14.9265C181.654 15.0514 181.816 15.1477 181.991 15.2098C182.167 15.2719 182.353 15.2987 182.538 15.2886H184.462V23.8575C184.435 25.032 184.704 26.1943 185.244 27.2368C185.766 28.2307 186.556 29.0575 187.523 29.623C188.49 30.1884 189.596 30.4698 190.715 30.4351H191.377C191.582 30.4457 191.788 30.4147 191.982 30.3442C192.176 30.2736 192.354 30.1648 192.505 30.0242C192.656 29.8836 192.778 29.7141 192.863 29.5256C192.948 29.337 192.995 29.1334 193 28.9265C193.004 28.5471 192.876 28.1782 192.639 27.8825Z" fill="#153C3C"/>
</g>
<defs>
<clipPath id="clip0_323_446">
<rect width="193" height="35" fill="white"/>
</clipPath>
</defs>
</svg>
