<svg width="178" height="48" viewBox="0 0 178 48" fill="none" xmlns="http://www.w3.org/2000/svg">
<path d="M65.0333 35.9098H69.0942L68.4053 32.7412V13.9112H64.5257V22.5067C63.3654 21.1591 61.7338 20.3578 59.8484 20.3578C55.9688 20.3578 52.9594 23.5994 52.9594 28.2977C52.9594 33.0325 55.9688 36.2376 59.8484 36.2376C61.7701 36.2376 63.438 35.4 64.5982 33.9795L65.0333 35.9098ZM141.755 24.5827C142.553 24.5827 143.278 24.8013 143.931 25.2748L145.78 21.1227C144.91 20.5764 143.931 20.3578 142.952 20.3578C141.211 20.3578 139.725 21.1591 138.818 22.6524L138.42 20.7221H134.431L135.084 23.7086V35.9463H138.963V26.2217C139.471 25.2019 140.45 24.5827 141.755 24.5827ZM153.104 32.1584C150.856 32.1584 149.188 30.6651 149.188 28.3342C149.188 25.9668 150.856 24.5099 153.104 24.5099C155.388 24.5099 157.02 25.9668 157.02 28.3342C157.02 30.6287 155.388 32.1584 153.104 32.1584ZM56.7302 28.2977C56.7302 25.9303 58.3981 24.4735 60.6461 24.4735C62.9303 24.4735 64.562 25.9303 64.562 28.2977C64.562 30.6287 62.9303 32.122 60.6461 32.122C58.3981 32.1584 56.7302 30.6287 56.7302 28.2977ZM170.327 32.1584C168.079 32.1584 166.411 30.6651 166.411 28.3342C166.411 25.9668 168.079 24.5099 170.327 24.5099C172.611 24.5099 174.243 25.9668 174.243 28.3342C174.206 30.6287 172.575 32.1584 170.327 32.1584ZM78.5213 24.2549C80.5155 24.2549 81.8208 25.2019 82.2559 26.9501H74.7867C75.1856 25.1655 76.5271 24.2549 78.5213 24.2549ZM124.895 24.2549C126.89 24.2549 128.195 25.2019 128.63 26.9501H121.161C121.632 25.1655 122.937 24.2549 124.895 24.2549ZM105.969 35.9098H112.205L116.266 20.6492H112.024L109.087 33.0325L106.114 20.6856H101.944L105.969 35.9098ZM95.9977 35.9098H99.8773V20.6492H95.9977V35.9098ZM79.1014 36.2012C81.2769 36.2012 83.3799 35.5821 85.1565 34.453L83.6699 31.1022C82.2921 31.8671 80.6968 32.2677 79.1377 32.2677C77.1072 32.2677 75.6932 31.4664 75.0405 29.9731H85.9904C86.0992 29.3904 86.1717 28.8805 86.1717 28.1885C86.1717 23.4537 82.9085 20.3214 78.5938 20.3214C74.2066 20.3214 71.0159 23.5265 71.0159 28.2613C70.9796 33.1054 74.1703 36.2012 79.1014 36.2012ZM177.977 28.2977C177.977 23.5629 174.714 20.3578 170.327 20.3578C165.903 20.3578 162.676 23.5994 162.676 28.2977C162.676 32.9961 165.939 36.2376 170.327 36.2376C174.714 36.2376 177.977 33.0325 177.977 28.2977ZM125.439 36.2376C127.615 36.2376 129.718 35.6549 131.494 34.4894L130.008 31.1386C128.63 31.9035 127.035 32.3041 125.475 32.3041C123.445 32.3041 122.031 31.5028 121.378 30.0096H132.328C132.437 29.4268 132.51 28.9169 132.51 28.2249C132.51 23.4901 129.246 20.3578 124.932 20.3578C120.544 20.3578 117.354 23.5629 117.354 28.2977C117.354 33.1782 120.508 36.2376 125.439 36.2376ZM153.104 36.2376C157.528 36.2376 160.755 32.9961 160.755 28.2977C160.755 23.5994 157.491 20.3578 153.104 20.3578C148.681 20.3578 145.454 23.5994 145.454 28.2977C145.454 32.9961 148.681 36.2376 153.104 36.2376ZM88.6373 35.9098H92.5169V13.9112H88.6373V35.9098ZM97.9556 18.5732C99.2971 18.5732 100.385 17.4805 100.385 16.0965C100.385 14.7125 99.3334 13.6199 97.9556 13.6199C96.5778 13.6199 95.4901 14.7125 95.4901 16.0965C95.4901 17.4805 96.5415 18.5732 97.9556 18.5732ZM31.2771 0.0346069L29.0653 21.1591L25.2945 3.34897L13.4019 5.86206L17.1364 23.6722L0.022644 27.3144L3.06832 41.5188L33.1987 47.9654L40.0878 32.4862L43.351 1.30936L31.2771 0.0346069ZM21.7412 30.7016C21.1248 31.2843 20.3271 31.2115 19.4207 30.9201C18.5505 30.6287 18.1879 29.6089 18.478 28.2977C18.7318 27.3508 19.8558 27.2051 20.4722 27.2051C20.6897 27.2051 20.9073 27.2415 21.1248 27.3508C21.5237 27.5329 22.2126 27.9335 22.3576 28.5163C22.5751 29.3904 22.3576 30.1188 21.7412 30.7016ZM30.4794 31.6485C30.008 32.4498 28.8478 32.5591 27.6513 31.9763C26.8536 31.5757 26.8536 30.6287 26.9624 30.0096C26.9986 29.6818 27.1437 29.354 27.3612 29.099C27.6513 28.7348 28.1226 28.2613 28.6302 28.2613C29.5367 28.2249 30.2618 28.6255 30.6969 29.354C31.132 30.0824 30.9145 30.8837 30.4794 31.6485Z" fill="#153C3C"/>
</svg>
