<svg width="198" height="48" viewBox="0 0 198 48" fill="none" xmlns="http://www.w3.org/2000/svg">
<path d="M22.2375 0.537566C22.688 0.23589 23.2176 0.0748749 23.7594 0.0748749C24.3012 0.0748749 24.8308 0.23589 25.2813 0.537566C27.6276 2.01703 29.8787 3.64311 32.0211 5.40616C32.0211 5.40616 32.6046 5.81167 32.6206 5.12476C32.5626 4.23777 32.6149 3.347 32.7763 2.47296C32.8626 2.24473 33.0159 2.04804 33.2159 1.90877C33.4159 1.7695 33.6532 1.69416 33.8967 1.69266C33.8967 1.69266 36.5434 1.82537 38.224 2.05147C38.5892 2.10012 38.9274 2.27038 39.1844 2.53491C39.4414 2.79945 39.6023 3.14289 39.6411 3.51009C39.6411 3.51009 40.7223 10.7356 40.9651 13.3407C40.9651 13.3407 41.1735 14.6678 43.0895 16.9141C43.0895 16.9141 46.9804 22.3762 47.4327 23.4207C47.4327 23.4207 48.335 25.3094 46.3895 25.5662C46.3895 25.5662 42.8394 25.925 42.4974 26.0037C42.2674 26.0312 42.0573 26.1477 41.9118 26.3284C41.7664 26.5091 41.6972 26.7396 41.719 26.9707C41.719 26.9707 41.5326 39.5404 40.6145 45.5788C40.6145 45.5788 40.373 47.975 39.0576 47.9197C39.0576 47.9197 35.407 47.803 34.5587 47.8263C34.5587 47.8263 34.1934 47.8263 34.2473 47.3348C34.2473 47.3348 36.1069 27.7351 34.8468 17.8271C34.8468 17.8271 34.7916 16.5479 33.8195 16.2665C33.8195 16.2665 32.932 15.9077 32.0837 17.0468C28.4022 22.2133 26.3868 28.3858 26.3086 34.7344C26.3086 34.7344 26.2069 37.8556 26.6825 38.6347C26.6825 38.6347 26.9767 39.1815 28.4882 39.3057L30.4018 39.5637C30.4018 39.5637 30.7524 39.5637 30.7205 40.0307C30.7205 40.0307 30.2853 45.7815 30.1615 46.8039C30.1529 47.0374 30.1063 47.266 30.0205 47.4822C30.0205 47.4822 29.9507 47.6776 29.3512 47.6543C29.3512 47.6543 20.9148 47.5928 19.9648 47.6543C19.9648 47.6543 19.5676 47.6543 19.483 47.4441C19.3972 47.2328 18.8982 40.0233 18.9142 39.0021C18.9066 38.8985 18.9308 38.795 18.9836 38.7056C19.0365 38.6162 19.1153 38.5452 19.2096 38.502C19.8535 38.0949 20.3978 37.5477 20.802 36.901C21.2063 36.2543 21.4602 35.5248 21.5449 34.7664C21.6479 33.6727 21.6626 32.5754 21.5915 31.4805C21.5915 31.4805 21.9028 20.4568 21.9813 18.6848C21.9813 18.6848 22.0426 18.0839 21.2642 17.9758C21.0774 17.9318 20.8809 17.9637 20.7176 18.0646C20.5542 18.1654 20.4374 18.327 20.3926 18.514V18.5754C20.3926 18.6381 19.8483 25.8476 19.9488 28.7181C19.9488 28.7181 20.1364 30.5982 18.837 30.6376C18.837 30.6376 17.5755 30.8256 17.513 29.2576C17.513 29.2576 17.6062 22.1882 17.9176 18.6934C17.9187 18.5005 17.8486 18.3141 17.7207 18.17C17.5928 18.0259 17.4162 17.9344 17.2249 17.9131C17.0266 17.8855 16.8253 17.9358 16.6631 18.0535C16.5008 18.1712 16.3903 18.3472 16.3546 18.5447C16.3497 18.5649 16.3497 18.586 16.3546 18.6062C16.3546 18.6062 15.8091 25.3721 15.9096 28.9455C15.9096 28.9455 16.0653 30.6781 14.6874 30.6142C14.6874 30.6142 13.5351 30.7469 13.4738 29.2097C13.4738 29.2097 13.7852 19.5278 13.871 18.7794C13.861 18.5947 13.7859 18.4195 13.6591 18.2851C13.5322 18.1508 13.3618 18.0659 13.1784 18.0458H13.0999C12.9053 18.0295 12.7117 18.087 12.5573 18.2069C12.4029 18.3268 12.2991 18.5004 12.2663 18.6934C12.2639 18.7167 12.2639 18.7402 12.2663 18.7634C12.2663 18.7634 11.7539 30.3414 11.8238 33.7428C11.8238 33.7428 11.7772 37.2388 14.3527 38.6581C14.3527 38.6581 14.734 38.8768 14.7426 39.2123C14.7426 39.2123 15.0306 45.3527 15.2942 47.3348C15.2942 47.3348 15.3886 47.8103 14.9681 47.8103L8.48452 47.9897C8.14467 47.9877 7.8184 47.8558 7.57235 47.6208C7.32629 47.3858 7.17901 47.0655 7.16059 46.7253C6.32051 40.2192 5.92037 33.6637 5.96292 27.1035C5.98563 26.8607 5.91903 26.6181 5.77565 26.4212C5.63228 26.2243 5.42202 26.0867 5.18449 26.0344C5.18449 26.0344 1.86853 25.7309 1.06681 25.5281C0.86046 25.4744 0.669366 25.3733 0.508567 25.233C0.347768 25.0927 0.22165 24.9168 0.140138 24.7194C0.0586261 24.5219 0.0239436 24.3081 0.0388198 24.0949C0.053696 23.8817 0.117725 23.6749 0.225868 23.4907C5.61301 14.1748 13.1646 6.30055 22.2387 0.537566H22.2375ZM67.8949 18.7241H61.4958C59.4266 18.7241 59.4266 18.7241 58.9902 21.1511C58.555 23.5767 58.5611 23.6628 60.4612 23.6628H64.2675L62.1039 36.0603C61.5817 38.8301 60.3754 40.7422 56.6549 41.8653C55.7061 42.1233 55.4487 42.4662 55.4487 42.9024C55.5149 43.6004 55.722 44.2775 56.0555 44.8931C56.6561 46.3677 57.0055 46.6319 57.5191 46.6319C58.1361 46.5726 58.746 46.455 59.3408 46.2805C64.6095 44.549 66.7732 40.4767 67.6374 35.6229L70.0585 21.6733C70.4863 18.7241 70.4863 18.7241 67.8949 18.7241ZM89.5939 18.7241C87.0024 18.7241 87.0024 18.7241 86.6518 20.893L84.7836 32.1588C84.2626 35.4521 83.3984 37.3555 80.1989 37.3555C77.0006 37.3555 75.966 35.4508 76.487 32.5017L78.3012 21.7593C78.8222 18.7241 78.7291 18.7241 76.0518 18.7241C73.3733 18.7241 73.3733 18.7241 73.0239 20.807L71.1238 32.074C70.0033 38.4873 73.98 42.4662 79.6006 42.4662C85.9053 42.4662 89.1036 39.6104 90.1394 32.8543L92.0456 21.6733C92.4747 18.7241 92.3031 18.7241 89.6258 18.7241H89.5939ZM101.432 37.1835C103.511 37.0975 104.632 36.1464 104.632 35.194C104.632 33.9775 103.161 33.5474 101.175 32.9391C97.2838 31.7226 93.7422 30.3414 93.7422 26.1831C93.7422 21.2432 97.806 18.5521 102.903 18.5521C104.953 18.5373 107.003 18.6259 109.045 18.8175C110.423 18.9896 110.773 19.4196 110.337 21.5873C109.9 23.7562 109.387 23.9282 108.18 23.8422C106.709 23.7561 104.803 23.5767 102.561 23.5767C99.9696 23.5767 99.19 24.5365 99.19 25.4028C99.19 26.5259 100.226 27.1354 102.647 27.8297C107.137 29.1249 110.079 30.9509 110.079 34.8512C110.079 39.447 106.709 42.1307 101.262 42.3015C98.6594 42.3936 96.054 42.25 93.4774 41.8727C91.7428 41.6072 91.657 41.6072 92.0922 39.0955C92.5213 36.848 92.5213 36.6686 94.1639 36.848C96.5703 37.1528 98.9987 37.267 101.425 37.1921L101.432 37.1835ZM129.702 18.7241H115.092C113.021 18.7241 113.021 18.7241 112.586 21.2432C112.15 23.7648 112.243 23.7562 114.057 23.7562H118.814L116.128 39.2983C115.613 42.3249 115.699 42.3249 118.377 42.3249C120.883 42.3249 120.969 42.3249 121.319 40.1646L124.081 23.7795H128.666C130.738 23.7795 130.738 23.7795 131.173 21.2678C131.608 18.7548 131.601 18.7487 129.702 18.7487V18.7241ZM155.463 23.6947C157.535 23.6947 157.535 23.6947 157.97 21.1818C158.405 18.6701 158.399 18.6701 156.499 18.6701H146.039C142.318 18.6701 142.41 18.6701 141.805 22.3995L139.127 38.0805C138.434 42.1541 138.519 42.1541 142.241 42.1541H152.444C154.608 42.1541 154.515 42.1541 154.95 39.7271C155.386 37.3015 155.379 37.2154 153.479 37.2154H144.652L145.346 32.7057H152.693C154.686 32.7057 154.686 32.7057 155.028 30.3648C155.371 28.0238 155.371 27.9391 152.693 27.9391H146.209L146.902 23.6873L155.463 23.6947ZM166.508 31.988L169.88 24.5365C170.143 23.9282 170.143 23.9282 170.571 23.9282C171 23.9282 171.007 23.9282 171.093 24.6225L172.128 31.988H166.508ZM175.669 21.5873C175.156 18.6381 175.156 18.6381 170.999 18.6381C167.108 18.6381 167.194 18.6381 165.987 21.065L157.254 39.3524C155.955 41.9513 156.218 42.2081 159.411 42.2081C161.924 42.2081 161.924 42.2081 162.959 39.8672L164.337 36.746H172.813L173.242 39.8672C173.591 42.2081 173.677 42.2081 176.184 42.2081C179.04 42.2081 179.297 42.0361 178.774 39.1729L175.669 21.5885V21.5873ZM196.35 18.7241H181.655C179.576 18.7241 179.576 18.7241 179.148 21.2432C178.719 23.7648 178.798 23.7562 180.612 23.7562H185.368L182.69 39.2983C182.169 42.3249 182.253 42.3249 184.939 42.3249C187.445 42.3249 187.531 42.3249 187.874 40.1646L190.644 23.7795H195.221C197.298 23.7795 197.298 23.7795 197.727 21.2678C198.155 18.7548 198.248 18.7487 196.35 18.7487" fill="#153C3C"/>
</svg>
