<svg width="37" height="22" viewBox="0 0 37 22" fill="none" xmlns="http://www.w3.org/2000/svg">
<g clip-path="url(#clip0_323_475)">
<path d="M26.2833 1.37057H35.47V10.5573" stroke="#153C3C" stroke-width="3" stroke-linecap="round" stroke-linejoin="round"/>
<path d="M1.34801 19.744L11.3033 9.7887C11.547 9.5449 11.8364 9.35151 12.1549 9.21956C12.4734 9.08762 12.8147 9.01971 13.1595 9.01971C13.5042 9.01971 13.8456 9.08762 14.1641 9.21956C14.4826 9.35151 14.7719 9.5449 15.0157 9.7887L19.1776 13.9506C19.4213 14.1944 19.7107 14.3878 20.0292 14.5197C20.3477 14.6517 20.689 14.7196 21.0338 14.7196C21.3785 14.7196 21.7199 14.6517 22.0384 14.5197C22.3569 14.3878 22.6462 14.1944 22.89 13.9506L34.1576 2.68295" stroke="#153C3C" stroke-width="3" stroke-linecap="round" stroke-linejoin="round"/>
</g>
<defs>
<clipPath id="clip0_323_475">
<rect width="36.8288" height="21.0802" fill="white"/>
</clipPath>
</defs>
</svg>
