<svg width="110" height="55" viewBox="0 0 110 55" fill="none" xmlns="http://www.w3.org/2000/svg">
<g clip-path="url(#clip0_314_516)">
<path d="M22.6266 30.0732H7.67371C7.05289 30.05 6.46537 29.7909 6.0345 29.3503C5.60362 28.9098 5.36292 28.322 5.36292 27.7104C5.36292 27.0988 5.60362 26.5111 6.0345 26.0705C6.46537 25.6299 7.05289 25.3708 7.67371 25.3476H22.6266C22.9495 25.3355 23.2715 25.3877 23.5735 25.501C23.8753 25.6143 24.151 25.7864 24.3838 26.007C24.6166 26.2276 24.8017 26.4921 24.9282 26.7848C25.0547 27.0776 25.1198 27.3924 25.1198 27.7104C25.1198 28.0285 25.0547 28.3432 24.9282 28.636C24.8017 28.9287 24.6166 29.1932 24.3838 29.4138C24.151 29.6344 23.8753 29.8065 23.5735 29.9198C23.2715 30.0331 22.9495 30.0853 22.6266 30.0732ZM58.0609 48.5525V25.9788C58.0844 25.3677 58.3476 24.7894 58.7952 24.3652C59.2428 23.9411 59.8399 23.7041 60.4612 23.7041C61.0824 23.7041 61.6795 23.9411 62.1271 24.3652C62.5746 24.7894 62.8379 25.3677 62.8615 25.9788V48.5457C62.8737 48.8636 62.8207 49.1806 62.7056 49.4777C62.5905 49.775 62.4157 50.0462 62.1916 50.2754C61.9675 50.5045 61.6987 50.6868 61.4014 50.8114C61.104 50.9358 60.7843 51 60.4612 51C60.138 51 59.8182 50.9358 59.5209 50.8114C59.2236 50.6868 58.9548 50.5045 58.7306 50.2754C58.5066 50.0462 58.3318 49.775 58.2166 49.4777C58.1016 49.1806 58.0486 48.8636 58.0609 48.5457V48.5525Z" fill="white" stroke="white" stroke-width="7.12911e-05" stroke-miterlimit="2" stroke-linejoin="round"/>
<path d="M20.8415 34.9352V6.3189C20.8651 5.70778 21.1283 5.12943 21.5759 4.70528C22.0234 4.28114 22.6206 4.04419 23.2418 4.04419C23.8631 4.04419 24.4602 4.28114 24.9078 4.70528C25.3553 5.12943 25.6185 5.70778 25.6421 6.3189V34.9352C25.6544 35.253 25.6014 35.5701 25.4863 35.8673C25.3712 36.1644 25.1964 36.4358 24.9722 36.6649C24.7482 36.894 24.4794 37.0763 24.1821 37.2008C23.8848 37.3254 23.5649 37.3895 23.2418 37.3895C22.9187 37.3895 22.5989 37.3254 22.3015 37.2008C22.0042 37.0763 21.7354 36.894 21.5114 36.6649C21.2873 36.4358 21.1125 36.1644 20.9973 35.8673C20.8822 35.5701 20.8293 35.253 20.8415 34.9352ZM70.1576 13.4158C67.7636 13.4205 65.4248 14.1238 63.4367 15.4367C61.4487 16.7496 59.9007 18.6132 58.9884 20.792C58.076 22.9707 57.8403 25.3667 58.3111 27.6774C58.7818 29.9879 59.9378 32.1093 61.633 33.7732C63.3283 35.4372 65.4866 36.5691 67.8352 37.0259C70.1838 37.4827 72.6172 37.2438 74.8279 36.3395C77.0386 35.4352 78.9276 33.906 80.2554 31.9453C81.5831 29.9845 82.2914 27.6802 82.289 25.3237C82.2874 23.7574 81.9729 22.2068 81.362 20.7604C80.7518 19.3141 79.8577 18.0004 78.7307 16.8945C77.604 15.7886 76.267 14.9121 74.7959 14.3152C73.3249 13.7183 71.7487 13.4127 70.1576 13.4158ZM70.1576 32.5536C68.22 32.5582 66.3594 31.8067 64.9835 30.4637C63.6076 29.1208 62.8283 27.2958 62.8164 25.3885V25.3407C62.815 23.9127 63.2438 22.5165 64.0486 21.3284C64.8533 20.1404 65.9979 19.214 67.3375 18.6663C68.6772 18.1187 70.1518 17.9743 71.5748 18.2515C72.9978 18.5288 74.3052 19.2152 75.332 20.2239C76.3587 21.2326 77.0584 22.5185 77.3428 23.9187C77.6271 25.3189 77.4832 26.7707 76.9294 28.0904C76.3755 29.4102 75.4366 30.5387 74.2312 31.3331C73.0258 32.1275 71.6083 32.5523 70.1576 32.5536ZM30.0926 48.5524V25.9787C30.0926 25.3517 30.3457 24.7502 30.7962 24.3068C31.2467 23.8634 31.8576 23.6143 32.4946 23.6143C33.1317 23.6143 33.7426 23.8634 34.1931 24.3068C34.6436 24.7502 34.8967 25.3517 34.8967 25.9787V48.5456C34.8967 49.1727 34.6436 49.7741 34.1931 50.2176C33.7426 50.661 33.1317 50.9101 32.4946 50.9101C31.8576 50.9101 31.2467 50.661 30.7962 50.2176C30.3457 49.7741 30.0926 49.1727 30.0926 48.5456V48.5524Z" fill="white" stroke="white" stroke-width="7.12911e-05" stroke-miterlimit="2" stroke-linejoin="round"/>
<path d="M42.2032 13.4159C39.8086 13.4159 37.4678 14.1149 35.4768 15.4245C33.4858 16.7341 31.934 18.5954 31.0176 20.7732C30.1012 22.9509 29.8615 25.3472 30.3287 27.6591C30.7958 29.971 31.9489 32.0946 33.6421 33.7614C35.3354 35.4281 37.4926 36.5632 39.8412 37.0231C42.1898 37.4829 44.6241 37.2469 46.8364 36.3448C49.0487 35.4428 50.9396 33.9152 52.27 31.9553C53.6004 29.9954 54.3104 27.6912 54.3104 25.334C54.3104 23.7689 53.9972 22.2191 53.3888 20.7732C52.7803 19.3272 51.8886 18.0133 50.7643 16.9066C49.6401 15.7999 48.3054 14.9221 46.8364 14.3232C45.3675 13.7242 43.7932 13.4159 42.2032 13.4159ZM42.2032 32.5538C40.2668 32.5565 38.408 31.8042 37.0336 30.4614C35.6591 29.1187 34.8808 27.2947 34.8689 25.3886V25.3408C34.8689 23.9129 35.2991 22.517 36.1049 21.3297C36.9108 20.1425 38.0564 19.2171 39.3965 18.6707C40.7367 18.1242 42.2113 17.9812 43.6341 18.2598C45.0568 18.5384 46.3636 19.226 47.3894 20.2357C48.4151 21.2454 49.1136 22.5319 49.3966 23.9323C49.6796 25.3328 49.5344 26.7845 48.9792 28.1037C48.4241 29.4229 47.4841 30.5505 46.2779 31.3438C45.0718 32.1372 43.6538 32.5606 42.2032 32.5606V32.5538ZM101.138 34.85V6.31219C101.161 5.70286 101.424 5.12622 101.87 4.70332C102.316 4.28043 102.912 4.04419 103.531 4.04419C104.151 4.04419 104.746 4.28043 105.192 4.70332C105.639 5.12622 105.901 5.70286 105.925 6.31219V34.85C105.937 35.1669 105.884 35.4831 105.77 35.7795C105.654 36.0758 105.48 36.3463 105.257 36.5748C105.033 36.8033 104.765 36.9851 104.468 37.1092C104.172 37.2334 103.854 37.2974 103.531 37.2974C103.209 37.2974 102.89 37.2334 102.593 37.1092C102.297 36.9851 102.029 36.8033 101.806 36.5748C101.582 36.3463 101.408 36.0758 101.293 35.7795C101.178 35.4831 101.126 35.1669 101.138 34.85Z" fill="white" stroke="white" stroke-width="7.12911e-05" stroke-miterlimit="2" stroke-linejoin="round"/>
<path d="M86.0951 26.2483L101.585 4.95413C101.961 4.46716 102.516 4.14334 103.13 4.05111C103.745 3.95888 104.371 4.10547 104.878 4.45988C105.385 4.8143 105.732 5.34879 105.846 5.95038C105.959 6.55197 105.831 7.17354 105.488 7.68372L89.9977 28.9779C89.8205 29.2414 89.5907 29.4672 89.3232 29.6418C89.0558 29.8163 88.7546 29.9361 88.4394 29.9939C88.1233 30.0517 87.7994 30.0466 87.4857 29.9785C87.172 29.9105 86.8755 29.7811 86.6136 29.5981C86.3516 29.4149 86.1304 29.1819 85.9618 28.9128C85.7932 28.6437 85.6818 28.3439 85.6332 28.0314C85.5846 27.7189 85.601 27.4 85.6803 27.0937C85.7595 26.7874 85.9006 26.4999 86.0951 26.2483Z" fill="white"/>
<path d="M107.495 29.9937H88.0088C87.39 29.9705 86.8041 29.7121 86.3743 29.2729C85.9445 28.8335 85.7045 28.2475 85.7045 27.6378C85.7045 27.0279 85.9445 26.4419 86.3743 26.0026C86.8041 25.5633 87.39 25.3049 88.0088 25.2818H107.495C107.817 25.2697 108.138 25.3217 108.439 25.4346C108.74 25.5476 109.015 25.7192 109.247 25.9392C109.479 26.1591 109.664 26.4229 109.791 26.7148C109.916 27.0067 109.981 27.3206 109.981 27.6378C109.981 27.9549 109.916 28.2688 109.791 28.5606C109.664 28.8525 109.479 29.1163 109.247 29.3363C109.015 29.5562 108.74 29.7278 108.439 29.8408C108.138 29.9537 107.817 30.0057 107.495 29.9937ZM0.475114 33.59L21.2927 4.95658C21.666 4.46 22.2221 4.12722 22.8419 4.02965C23.4615 3.93207 24.0954 4.07745 24.6074 4.43462C25.1195 4.79179 25.469 5.33228 25.5808 5.94015C25.6927 6.54802 25.5582 7.17485 25.2059 7.68616L4.38838 36.3195C4.20927 36.5796 3.97925 36.8018 3.71178 36.9731C3.44433 37.1446 3.14479 37.2618 2.83076 37.3177C2.51673 37.3737 2.1945 37.3675 1.88296 37.2993C1.5714 37.2312 1.27679 37.1026 1.01639 36.921C0.755989 36.7393 0.535025 36.5083 0.366459 36.2416C0.197886 35.9748 0.085098 35.6776 0.0346843 35.3674C-0.0157215 35.0571 -0.00273377 34.7402 0.0728946 34.435C0.148515 34.1297 0.285263 33.8425 0.475114 33.59Z" fill="white" stroke="white" stroke-width="7.12911e-05" stroke-miterlimit="2" stroke-linejoin="round"/>
<path fill-rule="evenodd" clip-rule="evenodd" d="M103.529 37.3523C104.852 37.3523 105.926 36.2785 105.926 34.9526V6.44073C105.926 5.11479 104.852 4.04102 103.529 4.04102C102.206 4.04102 101.132 5.11479 101.132 6.44073V34.9526C101.132 36.2785 102.206 37.3523 103.529 37.3523Z" fill="white"/>
<path fill-rule="evenodd" clip-rule="evenodd" d="M110.005 27.654C110.005 26.3406 108.938 25.2743 107.627 25.2743H87.983C86.6722 25.2743 85.6057 26.3406 85.6057 27.654C85.6057 28.9674 86.6722 30.0338 87.983 30.0338H107.627C108.938 30.0338 110.005 28.9674 110.005 27.654Z" fill="white"/>
</g>
<defs>
<clipPath id="clip0_314_516">
<rect width="110" height="55" fill="white"/>
</clipPath>
</defs>
</svg>
