<svg width="14" height="14" viewBox="0 0 14 14" fill="none" xmlns="http://www.w3.org/2000/svg">
<path d="M11.0246 13.9985C10.9263 13.9989 10.8305 13.9661 10.7507 13.9048L6.99927 10.9914L3.24788 13.9048C3.16773 13.967 3.07118 14.0004 2.97217 14C2.87316 13.9996 2.77684 13.9655 2.69711 13.9026C2.61739 13.8397 2.55841 13.7513 2.52869 13.6501C2.49897 13.549 2.50005 13.4403 2.53179 13.3398L3.99489 8.69768L0.202955 5.91214C0.120819 5.85187 0.0588275 5.76505 0.026038 5.66435C-0.00675142 5.56365 -0.00862046 5.45436 0.020704 5.35245C0.0500285 5.25053 0.10901 5.16133 0.18903 5.09788C0.26905 5.03443 0.365916 5.00005 0.465474 4.99977H5.14356L6.55532 0.345741C6.58574 0.245262 6.64508 0.157684 6.72483 0.0955702C6.80459 0.0334567 6.90066 0 6.99927 0C7.09788 0 7.19395 0.0334567 7.27371 0.0955702C7.35347 0.157684 7.41281 0.245262 7.44322 0.345741L8.85499 5.00133H13.5331C13.6328 5.00128 13.7298 5.03542 13.8101 5.09875C13.8903 5.16208 13.9496 5.25127 13.9791 5.35326C14.0086 5.45526 14.0068 5.56469 13.9741 5.66554C13.9413 5.76639 13.8793 5.85336 13.797 5.9137L10.0037 8.69768L11.4659 13.3386C11.4896 13.4137 11.4962 13.4938 11.4853 13.5723C11.4744 13.6507 11.4462 13.7252 11.4031 13.7897C11.36 13.8542 11.3032 13.9067 11.2374 13.943C11.1715 13.9793 11.0986 13.9984 11.0246 13.9985Z" fill="#153C3C"/>
</svg>
