<svg width="179" height="30" viewBox="0 0 179 30" fill="none" xmlns="http://www.w3.org/2000/svg">
<path d="M82.3291 12.1244C79.678 12.1244 77.7975 14.2024 77.7975 17.3922V29.0931H73.7506V8.49757H77.7491V11.0125C78.2423 10.179 78.949 9.49273 79.7961 9.02492C80.6431 8.5571 81.5997 8.32474 82.5666 8.35192H84.0206V12.1244H82.3291ZM70.9541 18.7953C70.9541 12.6536 66.5922 8.06061 60.6891 8.06061C59.2943 8.0701 57.9152 8.35576 56.631 8.90117C55.3469 9.44657 54.183 10.241 53.2065 11.2386C52.23 12.2363 51.46 13.4175 50.9409 14.7144C50.4217 16.0113 50.1637 17.3982 50.1816 18.7953C50.1816 24.9322 54.9071 29.5737 61.0719 29.5737C62.794 29.6063 64.4986 29.2237 66.0422 28.4582C67.5858 27.6927 68.923 26.5666 69.9412 25.175L67.0042 23.0193C66.3303 23.9614 65.4388 24.726 64.4057 25.2477C63.3726 25.7694 62.2287 26.0326 61.0719 26.0149C59.4244 26.0071 57.8341 25.4083 56.5893 24.327C55.3446 23.2458 54.5277 21.7535 54.2867 20.1208H70.9638L70.9541 18.7953ZM54.3739 16.9067C55.0961 13.7654 57.6018 11.6388 60.6406 11.6388C63.6794 11.6388 66.1802 13.7654 66.8588 16.9067H54.3739ZM37.3624 8.06061C36.01 8.06175 34.6712 8.33136 33.4233 8.85386C32.1755 9.37637 31.0434 10.1414 30.0925 11.1048V0.80703H26.0456V29.0931H30.044V26.481C31.9811 28.444 34.6168 29.5564 37.3721 29.5737C38.8014 29.6042 40.2223 29.3484 41.5517 28.8215C42.881 28.2946 44.0919 27.5072 45.1135 26.5053C46.1351 25.5035 46.9467 24.3074 47.5008 22.9872C48.0549 21.667 48.3403 20.2493 48.3403 18.8172C48.3403 17.385 48.0549 15.9673 47.5008 14.6472C46.9467 13.327 46.1351 12.1309 45.1135 11.129C44.0919 10.1272 42.881 9.33973 41.5517 8.81283C40.2223 8.28592 38.8014 8.03019 37.3721 8.06061H37.3624ZM37.0716 25.9518C35.661 25.9585 34.2802 25.5453 33.1044 24.7647C31.9286 23.984 31.0108 22.871 30.4675 21.567C29.9241 20.2629 29.7797 18.8266 30.0525 17.4402C30.3254 16.0538 31.0032 14.7798 31.9999 13.7799C32.9967 12.78 34.2675 12.0993 35.6511 11.8241C37.0347 11.5488 38.4687 11.6916 39.7712 12.2341C41.0737 12.7766 42.1859 13.6945 42.9669 14.8713C43.7478 16.0481 44.1621 17.4308 44.1573 18.8439C44.1586 19.7759 43.9761 20.6991 43.6204 21.5603C43.2646 22.4215 42.7426 23.2039 42.0842 23.8625C41.4259 24.5211 40.6442 25.043 39.784 25.3982C38.9238 25.7534 38.002 25.9349 37.0716 25.9324V25.9518ZM11.1423 25.7576C15.0487 25.7576 18.0826 22.7571 18.0826 18.2613V0.80703H22.2749V29.0931H18.1311V26.4179C17.163 27.4202 16.0019 28.2154 14.7182 28.7554C13.4345 29.2953 12.0548 29.5687 10.6625 29.5592C4.63819 29.5592 0 25.1604 0 18.4895V0.80703H4.26985V18.2855C4.26985 22.8057 7.17781 25.7576 11.1423 25.7576Z" fill="#153C3C"/>
<path d="M94.0869 0.80703H113.895V5.66217H99.4375V12.5565H113.493V17.2465H99.4375V24.2574H113.895V29.1125H94.0869V0.80703ZM168.598 29.6223C174.671 29.6223 178.093 26.7092 178.093 22.7086C178.093 19.8586 176.067 17.732 171.826 16.8096L167.343 15.892C164.741 15.4064 163.921 14.9209 163.921 13.9499C163.921 12.6924 165.177 11.9204 167.489 11.9204C169.994 11.9204 171.851 12.5953 172.335 14.9161H177.589C177.303 10.5464 174.167 7.66249 167.808 7.66249C162.312 7.66249 158.455 9.9347 158.455 14.3383C158.455 17.3825 160.577 19.3634 165.157 20.3295L170.169 21.4899C172.146 21.8783 172.674 22.4124 172.674 23.2329C172.674 24.539 171.182 25.3595 168.768 25.3595C165.734 25.3595 163.999 24.6846 163.325 22.3639H158.043C158.813 26.7238 162.041 29.6223 168.598 29.6223ZM156.516 29.0931H150.831C147.264 29.0931 145.286 26.8694 145.286 24.0632V12.9449H141.288V8.20626H145.306V2.25872H150.589V8.20626H156.516V12.9449H150.589V22.7086C150.589 23.8204 151.359 24.3545 152.566 24.3545H156.516V29.0931ZM133.737 8.21598V10.0998C131.877 8.52469 129.518 7.66416 127.083 7.6722C125.624 7.64147 124.175 7.90264 122.819 8.44039C121.463 8.97813 120.227 9.78164 119.185 10.8038C118.143 11.826 117.315 13.0462 116.75 14.3931C116.185 15.7399 115.894 17.1862 115.894 18.6472C115.894 20.1083 116.185 21.5546 116.75 22.9014C117.315 24.2482 118.143 25.4685 119.185 26.4907C120.227 27.5129 121.463 28.3164 122.819 28.8541C124.175 29.3918 125.624 29.653 127.083 29.6223C129.518 29.6329 131.878 28.772 133.737 27.1947V29.0834H139.005V8.20626L133.737 8.21598ZM127.519 25.039C126.255 25.0535 125.016 24.6912 123.958 23.9983C122.9 23.3054 122.072 22.3131 121.579 21.1475C121.085 19.982 120.949 18.6958 121.187 17.4524C121.425 16.2091 122.027 15.0647 122.915 14.1647C123.804 13.2647 124.94 12.6497 126.179 12.3979C127.417 12.1462 128.703 12.269 129.871 12.7507C131.04 13.2325 132.039 14.0515 132.742 15.1036C133.445 16.1556 133.82 17.3934 133.819 18.6594C133.827 19.4939 133.669 20.3218 133.356 21.0949C133.042 21.868 132.578 22.5712 131.991 23.1636C131.404 23.756 130.706 24.2259 129.937 24.5462C129.167 24.8664 128.342 25.0306 127.509 25.0293L127.519 25.039Z" fill="#153C3C"/>
</svg>
